<mxfile host="app.diagrams.net" modified="2023-10-13T12:38:40.823Z" agent="Mozilla/5.0 (Windows NT 10.0; Win64; x64) AppleWebKit/537.36 (KHTML, like Gecko) Chrome/117.0.0.0 Safari/537.36 Edg/117.0.2045.60" etag="bkT9iuKUjZGLkEGEIIq2" version="22.0.4" type="github">
  <diagram name="第 1 页" id="7lIgjP7i67-xkfNfhE35">
    <mxGraphModel dx="1022" dy="686" grid="1" gridSize="10" guides="1" tooltips="1" connect="1" arrows="1" fold="1" page="1" pageScale="1" pageWidth="827" pageHeight="1169" math="0" shadow="0">
      <root>
        <mxCell id="0" />
        <mxCell id="1" parent="0" />
        <mxCell id="HHAol5U07a2iUj7GmDbx-1" value="&lt;span style=&quot;font-weight: normal;&quot;&gt;:授权模块&lt;/span&gt;" style="shape=umlLifeline;perimeter=lifelinePerimeter;whiteSpace=wrap;html=1;container=0;dropTarget=0;collapsible=0;recursiveResize=0;outlineConnect=0;portConstraint=eastwest;newEdgeStyle={&quot;edgeStyle&quot;:&quot;elbowEdgeStyle&quot;,&quot;elbow&quot;:&quot;vertical&quot;,&quot;curved&quot;:0,&quot;rounded&quot;:0};fontFamily=宋体;fontStyle=1" parent="1" vertex="1">
          <mxGeometry x="80" y="80" width="100" height="380" as="geometry" />
        </mxCell>
        <mxCell id="HHAol5U07a2iUj7GmDbx-2" value="" style="html=1;points=[];perimeter=orthogonalPerimeter;outlineConnect=0;targetShapes=umlLifeline;portConstraint=eastwest;newEdgeStyle={&quot;edgeStyle&quot;:&quot;elbowEdgeStyle&quot;,&quot;elbow&quot;:&quot;vertical&quot;,&quot;curved&quot;:0,&quot;rounded&quot;:0};fontFamily=宋体;fontStyle=0" parent="HHAol5U07a2iUj7GmDbx-1" vertex="1">
          <mxGeometry x="45" y="70" width="10" height="290" as="geometry" />
        </mxCell>
        <mxCell id="HHAol5U07a2iUj7GmDbx-3" value="认证通过" style="html=1;verticalAlign=bottom;startArrow=oval;endArrow=block;startSize=8;edgeStyle=elbowEdgeStyle;elbow=vertical;curved=0;rounded=0;fontFamily=宋体;fontStyle=0" parent="HHAol5U07a2iUj7GmDbx-1" target="HHAol5U07a2iUj7GmDbx-2" edge="1">
          <mxGeometry relative="1" as="geometry">
            <mxPoint x="-15" y="70" as="sourcePoint" />
          </mxGeometry>
        </mxCell>
        <mxCell id="HHAol5U07a2iUj7GmDbx-4" value=":数据同步模块" style="shape=umlLifeline;perimeter=lifelinePerimeter;whiteSpace=wrap;html=1;container=0;dropTarget=0;collapsible=0;recursiveResize=0;outlineConnect=0;portConstraint=eastwest;newEdgeStyle={&quot;edgeStyle&quot;:&quot;elbowEdgeStyle&quot;,&quot;elbow&quot;:&quot;vertical&quot;,&quot;curved&quot;:0,&quot;rounded&quot;:0};fontFamily=宋体;fontStyle=0" parent="1" vertex="1">
          <mxGeometry x="215" y="80" width="100" height="380" as="geometry" />
        </mxCell>
        <mxCell id="HHAol5U07a2iUj7GmDbx-5" value="" style="html=1;points=[];perimeter=orthogonalPerimeter;outlineConnect=0;targetShapes=umlLifeline;portConstraint=eastwest;newEdgeStyle={&quot;edgeStyle&quot;:&quot;elbowEdgeStyle&quot;,&quot;elbow&quot;:&quot;vertical&quot;,&quot;curved&quot;:0,&quot;rounded&quot;:0};fontFamily=宋体;fontStyle=0" parent="HHAol5U07a2iUj7GmDbx-4" vertex="1">
          <mxGeometry x="45" y="70" width="10" height="290" as="geometry" />
        </mxCell>
        <mxCell id="HHAol5U07a2iUj7GmDbx-6" value=":数据库" style="shape=umlLifeline;perimeter=lifelinePerimeter;whiteSpace=wrap;html=1;container=0;dropTarget=0;collapsible=0;recursiveResize=0;outlineConnect=0;portConstraint=eastwest;newEdgeStyle={&quot;edgeStyle&quot;:&quot;elbowEdgeStyle&quot;,&quot;elbow&quot;:&quot;vertical&quot;,&quot;curved&quot;:0,&quot;rounded&quot;:0};fontFamily=宋体;fontStyle=0" parent="1" vertex="1">
          <mxGeometry x="350" y="80" width="100" height="380" as="geometry" />
        </mxCell>
        <mxCell id="HHAol5U07a2iUj7GmDbx-7" value="" style="html=1;points=[];perimeter=orthogonalPerimeter;outlineConnect=0;targetShapes=umlLifeline;portConstraint=eastwest;newEdgeStyle={&quot;edgeStyle&quot;:&quot;elbowEdgeStyle&quot;,&quot;elbow&quot;:&quot;vertical&quot;,&quot;curved&quot;:0,&quot;rounded&quot;:0};fontFamily=宋体;fontStyle=0" parent="HHAol5U07a2iUj7GmDbx-6" vertex="1">
          <mxGeometry x="44" y="70" width="10" height="290" as="geometry" />
        </mxCell>
        <mxCell id="HHAol5U07a2iUj7GmDbx-8" value=":数据转换模块" style="shape=umlLifeline;perimeter=lifelinePerimeter;whiteSpace=wrap;html=1;container=0;dropTarget=0;collapsible=0;recursiveResize=0;outlineConnect=0;portConstraint=eastwest;newEdgeStyle={&quot;edgeStyle&quot;:&quot;elbowEdgeStyle&quot;,&quot;elbow&quot;:&quot;vertical&quot;,&quot;curved&quot;:0,&quot;rounded&quot;:0};fontFamily=宋体;fontStyle=0" parent="1" vertex="1">
          <mxGeometry x="490" y="80" width="100" height="240" as="geometry" />
        </mxCell>
        <mxCell id="HHAol5U07a2iUj7GmDbx-9" value="" style="html=1;points=[];perimeter=orthogonalPerimeter;outlineConnect=0;targetShapes=umlLifeline;portConstraint=eastwest;newEdgeStyle={&quot;edgeStyle&quot;:&quot;elbowEdgeStyle&quot;,&quot;elbow&quot;:&quot;vertical&quot;,&quot;curved&quot;:0,&quot;rounded&quot;:0};fontFamily=宋体;fontStyle=0" parent="HHAol5U07a2iUj7GmDbx-8" vertex="1">
          <mxGeometry x="45" y="100" width="10" height="130" as="geometry" />
        </mxCell>
        <mxCell id="HHAol5U07a2iUj7GmDbx-10" value=":硬件下发模块" style="shape=umlLifeline;perimeter=lifelinePerimeter;whiteSpace=wrap;html=1;container=0;dropTarget=0;collapsible=0;recursiveResize=0;outlineConnect=0;portConstraint=eastwest;newEdgeStyle={&quot;edgeStyle&quot;:&quot;elbowEdgeStyle&quot;,&quot;elbow&quot;:&quot;vertical&quot;,&quot;curved&quot;:0,&quot;rounded&quot;:0};fontFamily=宋体;fontStyle=0" parent="1" vertex="1">
          <mxGeometry x="610" y="80" width="100" height="320" as="geometry" />
        </mxCell>
        <mxCell id="HHAol5U07a2iUj7GmDbx-11" value="" style="html=1;points=[];perimeter=orthogonalPerimeter;outlineConnect=0;targetShapes=umlLifeline;portConstraint=eastwest;newEdgeStyle={&quot;edgeStyle&quot;:&quot;elbowEdgeStyle&quot;,&quot;elbow&quot;:&quot;vertical&quot;,&quot;curved&quot;:0,&quot;rounded&quot;:0};fontFamily=宋体;fontStyle=0" parent="HHAol5U07a2iUj7GmDbx-10" vertex="1">
          <mxGeometry x="45" y="240" width="10" height="50" as="geometry" />
        </mxCell>
        <mxCell id="HHAol5U07a2iUj7GmDbx-12" value="" style="endArrow=classic;html=1;rounded=0;fontFamily=宋体;fontStyle=0" parent="1" edge="1">
          <mxGeometry width="50" height="50" relative="1" as="geometry">
            <mxPoint x="140" y="170" as="sourcePoint" />
            <mxPoint x="260" y="170" as="targetPoint" />
          </mxGeometry>
        </mxCell>
        <mxCell id="HHAol5U07a2iUj7GmDbx-13" value="1.新增FDB消息发送到&lt;br&gt;数据同步模块" style="edgeLabel;html=1;align=center;verticalAlign=middle;resizable=0;points=[];fontFamily=宋体;fontStyle=0" parent="HHAol5U07a2iUj7GmDbx-12" vertex="1" connectable="0">
          <mxGeometry x="-0.148" relative="1" as="geometry">
            <mxPoint x="6" y="-20" as="offset" />
          </mxGeometry>
        </mxCell>
        <mxCell id="HHAol5U07a2iUj7GmDbx-14" value="" style="endArrow=classic;html=1;rounded=0;fontFamily=宋体;fontStyle=0" parent="1" edge="1">
          <mxGeometry width="50" height="50" relative="1" as="geometry">
            <mxPoint x="270" y="240" as="sourcePoint" />
            <mxPoint x="390" y="240" as="targetPoint" />
          </mxGeometry>
        </mxCell>
        <mxCell id="HHAol5U07a2iUj7GmDbx-15" value="3.将FDB表项写入&lt;br&gt;活动数据库" style="edgeLabel;html=1;align=center;verticalAlign=middle;resizable=0;points=[];fontFamily=宋体;fontStyle=0" parent="HHAol5U07a2iUj7GmDbx-14" vertex="1" connectable="0">
          <mxGeometry x="-0.148" relative="1" as="geometry">
            <mxPoint x="6" y="-20" as="offset" />
          </mxGeometry>
        </mxCell>
        <mxCell id="HHAol5U07a2iUj7GmDbx-16" value="" style="endArrow=none;html=1;rounded=0;endFill=0;startArrow=classic;startFill=1;dashed=1;fontFamily=宋体;fontStyle=0" parent="1" edge="1">
          <mxGeometry width="50" height="50" relative="1" as="geometry">
            <mxPoint x="410" y="297.14" as="sourcePoint" />
            <mxPoint x="530" y="297" as="targetPoint" />
          </mxGeometry>
        </mxCell>
        <mxCell id="HHAol5U07a2iUj7GmDbx-17" value="5.将FDB表项数据转换&lt;br&gt;写入硬件数据库" style="edgeLabel;html=1;align=center;verticalAlign=middle;resizable=0;points=[];fontFamily=宋体;fontStyle=0" parent="HHAol5U07a2iUj7GmDbx-16" vertex="1" connectable="0">
          <mxGeometry x="-0.148" relative="1" as="geometry">
            <mxPoint x="6" y="-20" as="offset" />
          </mxGeometry>
        </mxCell>
        <mxCell id="HHAol5U07a2iUj7GmDbx-18" value="" style="endArrow=classic;html=1;rounded=0;fontFamily=宋体;fontStyle=0;fontSize=12;" parent="1" edge="1">
          <mxGeometry width="50" height="50" relative="1" as="geometry">
            <mxPoint x="410" y="251.85000000000002" as="sourcePoint" />
            <mxPoint x="530" y="252" as="targetPoint" />
          </mxGeometry>
        </mxCell>
        <mxCell id="HHAol5U07a2iUj7GmDbx-34" value="4.通知新增FDB表项" style="edgeLabel;html=1;align=center;verticalAlign=middle;resizable=0;points=[];fontFamily=宋体;fontStyle=0" parent="HHAol5U07a2iUj7GmDbx-18" vertex="1" connectable="0">
          <mxGeometry x="-0.1073" y="10" relative="1" as="geometry">
            <mxPoint y="-2" as="offset" />
          </mxGeometry>
        </mxCell>
        <mxCell id="HHAol5U07a2iUj7GmDbx-20" value="" style="endArrow=classic;html=1;rounded=0;fontFamily=宋体;fontStyle=0" parent="1" target="HHAol5U07a2iUj7GmDbx-11" edge="1">
          <mxGeometry width="50" height="50" relative="1" as="geometry">
            <mxPoint x="410" y="340" as="sourcePoint" />
            <mxPoint x="735" y="355" as="targetPoint" />
            <Array as="points">
              <mxPoint x="530" y="340" />
            </Array>
          </mxGeometry>
        </mxCell>
        <mxCell id="HHAol5U07a2iUj7GmDbx-21" value="5.将硬件数据库中FDB表项下发到硬件" style="edgeLabel;html=1;align=center;verticalAlign=middle;resizable=0;points=[];fontFamily=宋体;fontStyle=0" parent="HHAol5U07a2iUj7GmDbx-20" vertex="1" connectable="0">
          <mxGeometry x="-0.148" relative="1" as="geometry">
            <mxPoint x="5" y="-10" as="offset" />
          </mxGeometry>
        </mxCell>
        <mxCell id="HHAol5U07a2iUj7GmDbx-24" value="" style="endArrow=classic;html=1;rounded=0;fontFamily=宋体;fontStyle=0;fontSize=12;" parent="1" edge="1">
          <mxGeometry width="50" height="50" relative="1" as="geometry">
            <mxPoint x="140" y="400" as="sourcePoint" />
            <mxPoint x="260" y="400.1700000000001" as="targetPoint" />
          </mxGeometry>
        </mxCell>
        <mxCell id="HHAol5U07a2iUj7GmDbx-25" value="6.通知数据同步模块&lt;br&gt;设置用户数据" style="edgeLabel;html=1;align=center;verticalAlign=middle;resizable=0;points=[];fontFamily=宋体;fontStyle=0" parent="HHAol5U07a2iUj7GmDbx-24" vertex="1" connectable="0">
          <mxGeometry x="-0.148" relative="1" as="geometry">
            <mxPoint x="6" y="-20" as="offset" />
          </mxGeometry>
        </mxCell>
        <mxCell id="HHAol5U07a2iUj7GmDbx-26" value="" style="endArrow=classic;html=1;rounded=0;fontFamily=宋体;fontStyle=0" parent="1" edge="1">
          <mxGeometry width="50" height="50" relative="1" as="geometry">
            <mxPoint x="274" y="430" as="sourcePoint" />
            <mxPoint x="394" y="430" as="targetPoint" />
          </mxGeometry>
        </mxCell>
        <mxCell id="HHAol5U07a2iUj7GmDbx-27" value="7.将用户数据写入到&lt;br style=&quot;font-size: 12px;&quot;&gt;活动数据库中" style="edgeLabel;html=1;align=center;verticalAlign=middle;resizable=0;points=[];fontFamily=宋体;fontStyle=0;fontSize=12;" parent="HHAol5U07a2iUj7GmDbx-26" vertex="1" connectable="0">
          <mxGeometry x="-0.148" relative="1" as="geometry">
            <mxPoint x="5" y="-20" as="offset" />
          </mxGeometry>
        </mxCell>
        <mxCell id="HHAol5U07a2iUj7GmDbx-32" value="" style="endArrow=classic;html=1;rounded=0;fontFamily=宋体;fontStyle=0" parent="1" edge="1">
          <mxGeometry width="50" height="50" relative="1" as="geometry">
            <mxPoint x="140" y="225" as="sourcePoint" />
            <mxPoint x="260" y="224.5" as="targetPoint" />
          </mxGeometry>
        </mxCell>
        <mxCell id="HHAol5U07a2iUj7GmDbx-33" value="2.通知数据同步模块&lt;br&gt;激活端口" style="edgeLabel;html=1;align=center;verticalAlign=middle;resizable=0;points=[];fontFamily=宋体;fontStyle=0" parent="HHAol5U07a2iUj7GmDbx-32" vertex="1" connectable="0">
          <mxGeometry x="-0.148" relative="1" as="geometry">
            <mxPoint x="6" y="-20" as="offset" />
          </mxGeometry>
        </mxCell>
      </root>
    </mxGraphModel>
  </diagram>
</mxfile>
